<svg xmlns="http://www.w3.org/2000/svg" version="1.1" xmlns:xlink="http://www.w3.org/1999/xlink" xmlns:svgjs="http://svgjs.dev/svgjs" width="1000" height="131" viewBox="0 0 1000 131"><g transform="matrix(1,0,0,1,-0.6060508763784469,0.5698734285692098)"><svg viewBox="0 0 396 52" data-background-color="#ffffff" preserveAspectRatio="xMidYMid meet" height="131" width="1000" xmlns="http://www.w3.org/2000/svg" xmlns:xlink="http://www.w3.org/1999/xlink"><g id="tight-bounds" transform="matrix(1,0,0,1,0.23999614704587202,-0.22620674949484965)"><svg viewBox="0 0 395.52 52.452410448277696" height="52.452410448277696" width="395.52"><g><svg viewBox="0 0 469.4375013381012 62.25507812499999" height="52.452410448277696" width="395.52"><g><svg viewBox="0 0 469.4375013381012 62.25507812499999" height="62.25507812499999" width="469.4375013381012"><g><svg viewBox="0 0 469.4375013381012 62.25507812499999" height="62.25507812499999" width="469.4375013381012"><g><svg viewBox="0 0 469.4375013381012 62.25507812499999" height="62.25507812499999" width="469.4375013381012"><g><svg><g></g><g></g></svg></g><g><svg><g></g><g><svg></svg></g></svg></g><g id="text-0"><svg viewBox="0 0 469.4375013381012 62.25507812499999" height="62.25507812499999" width="469.4375013381012"><g transform="matrix(1,0,0,1,0,11.523046874999999)"><svg width="190.25878906249997" viewBox="1.7599999904632568 -37.7400016784668 190.25 38.470001220703125" height="38.47656249999999" data-palette-color="#000000"><path d="M35.01-27.25L29.76-27.25Q28.13-30.03 25.43-31.62 22.73-33.2 19.41-33.2L19.41-33.2Q16.58-33.2 14.23-32.01 11.89-30.81 10.22-28.8 8.54-26.78 7.62-24.13 6.69-21.48 6.69-18.55L6.69-18.55Q6.69-15.09 7.71-12.41 8.74-9.74 10.39-7.97 12.04-6.2 14.31-5.02 16.58-3.83 19.41-3.83L19.41-3.83Q23.27-3.83 26.12-5.7 28.98-7.57 31.01-11.84L31.01-11.84 35.3-9.81Q34.38-7.18 32.15-4.72 29.93-2.27 26.67-0.77 23.41 0.73 19.46 0.73L19.46 0.73Q15.67 0.73 12.5-0.7 9.33-2.12 6.85-4.76 4.37-7.4 3.06-11.01 1.76-14.62 1.76-18.55L1.76-18.55Q1.76-22.51 3.06-26.03 4.37-29.54 6.73-32.14 9.08-34.74 12.34-36.24 15.6-37.74 19.41-37.74L19.41-37.74Q22.8-37.74 25.27-36.78 27.73-35.82 29.46-34.48 31.18-33.15 32.42-31.59L32.42-31.59 35.01-31.59 35.01-27.25ZM56.35 0.73L56.35 0.73Q52.51 0.73 49.34-0.7 46.16-2.12 43.67-4.76 41.18-7.4 39.89-11.01 38.6-14.62 38.6-18.51L38.6-18.51Q38.6-22.51 39.9-26.03 41.21-29.54 43.56-32.14 45.92-34.74 49.18-36.24 52.44-37.74 56.35-37.74L56.35-37.74Q60.28-37.74 63.55-36.24 66.82-34.74 69.16-32.14 71.51-29.54 72.8-26.03 74.09-22.51 74.09-18.51L74.09-18.51Q74.09-14.5 72.79-11 71.48-7.5 69.13-4.88 66.77-2.27 63.51-0.77 60.25 0.73 56.35 0.73ZM56.35-3.81L56.35-3.81Q59.25-3.81 61.61-5 63.96-6.2 65.62-8.22 67.28-10.23 68.19-12.89 69.09-15.55 69.09-18.51L69.09-18.51Q69.09-21.53 68.1-24.35 67.11-27.17 65.34-29.13 63.57-31.08 61.23-32.14 58.88-33.2 56.35-33.2L56.35-33.2Q53.44-33.2 51.07-32.01 48.7-30.81 47.04-28.8 45.38-26.78 44.48-24.11 43.58-21.44 43.58-18.51L43.58-18.51Q43.58-15.09 44.58-12.41 45.58-9.74 47.23-7.97 48.87-6.2 51.16-5 53.44-3.81 56.35-3.81ZM78.58-32.79L78.58-37.01 90.57-37.01 90.57-32.79 86.79-32.79 86.79-15.55Q86.79-12.45 87.48-10.27 88.18-8.08 89.41-6.7 90.64-5.32 92.34-4.69 94.04-4.05 96.06-4.05L96.06-4.05Q98.16-4.05 99.92-4.61 101.68-5.18 102.94-6.51 104.19-7.84 104.89-10.05 105.59-12.26 105.59-15.55L105.59-15.55 105.59-32.79 101.58-32.79 101.58-37.01 113.57-37.01 113.57-32.79 110.27-32.79 110.27-16.09Q110.27-12.08 109.16-8.98 108.05-5.88 106.12-3.78 104.19-1.68 101.58-0.6 98.97 0.49 95.97 0.49L95.97 0.49Q93.04 0.49 90.49-0.59 87.93-1.66 86.04-3.74 84.15-5.81 83.06-8.8 81.98-11.79 81.98-15.65L81.98-15.65 81.98-32.79 78.58-32.79ZM148.67-27.25L143.43-27.25Q141.79-30.03 139.09-31.62 136.39-33.2 133.07-33.2L133.07-33.2Q130.24-33.2 127.9-32.01 125.55-30.81 123.88-28.8 122.21-26.78 121.28-24.13 120.35-21.48 120.35-18.55L120.35-18.55Q120.35-15.09 121.38-12.41 122.4-9.74 124.05-7.97 125.7-6.2 127.97-5.02 130.24-3.83 133.07-3.83L133.07-3.83Q136.93-3.83 139.79-5.7 142.64-7.57 144.67-11.84L144.67-11.84 148.97-9.81Q148.04-7.18 145.82-4.72 143.6-2.27 140.34-0.77 137.08 0.73 133.12 0.73L133.12 0.73Q129.34 0.73 126.16-0.7 122.99-2.12 120.51-4.76 118.03-7.4 116.73-11.01 115.42-14.62 115.42-18.55L115.42-18.55Q115.42-22.51 116.73-26.03 118.03-29.54 120.39-32.14 122.75-34.74 126.01-36.24 129.26-37.74 133.07-37.74L133.07-37.74Q136.47-37.74 138.93-36.78 141.4-35.82 143.12-34.48 144.84-33.15 146.09-31.59L146.09-31.59 148.67-31.59 148.67-27.25ZM179.99-32.81L179.99-37.01 192.01-37.01 192.01-32.81 188.49-32.81 188.49-4.2 192.01-4.2 192.01 0 179.99 0 179.99-4.2 183.71-4.2 183.71-17.5 162.29-17.5 162.29-4.2 166.01-4.2 166.01 0 153.99 0 153.99-4.2 157.51-4.2 157.51-32.81 153.99-32.81 153.99-37.01 166.01-37.01 166.01-32.81 162.29-32.81 162.29-21.61 183.71-21.61 183.71-32.81 179.99-32.81Z" opacity="1" transform="matrix(1,0,0,1,0,0)" fill="#000000" class="undefined-o-0"></path></svg></g><g><svg xmlns="http://www.w3.org/2000/svg" xmlns:xlink="http://www.w3.org/1999/xlink" version="1.0" x="204.95683593749996" y="0" viewBox="4.999457359313965 17.206003189086914 90.0006103515625 65.5879898071289" enable-background="new 0 0 100 100" xml:space="preserve" height="62.25507812499999" width="85.42714977560121" class="icon-a-0" data-fill-palette-color="accent" id="a-0"><g fill="#000000" data-fill-palette-color="accent"><path fill-rule="evenodd" clip-rule="evenodd" d="M11.81 41.39c3.938 1.398 8.579 6.772 12.511 12.594 0.421 0.622 0.834 1.271 1.252 1.964h48.854c0.419-0.694 0.832-1.343 1.251-1.964 4.309-6.379 9.468-11.977 13.622-12.917 0.06-0.243 0.121-0.471 0.181-0.717 3.728-15.413-14.87-23.144-38.98-23.144-24.11 0-43.07 7.891-38.98 23.144C11.618 40.708 11.714 41.04 11.81 41.39z" fill="#000000" data-fill-palette-color="accent"></path><path fill-rule="evenodd" clip-rule="evenodd" d="M93.478 44.642c-3.247-3.084-10.627 2.664-16.485 11.335-0.62 0.917-1.188 1.845-1.722 2.773H25.035c-0.099 0-0.195 0.015-0.292 0.022-0.538-0.935-1.11-1.87-1.735-2.795C17.15 47.306 9.769 41.559 6.522 44.642c-3.247 3.084-1.13 12.614 4.728 21.286 3.382 5.006 7.264 8.613 10.571 10.186 0.468 3.862 1.919 6.68 3.638 6.68 1.583 0 2.939-2.388 3.509-5.78h42.885c0.571 3.392 1.926 5.78 3.509 5.78 1.786 0 3.28-3.043 3.686-7.136 3.106-1.76 6.612-5.157 9.701-9.729C94.608 57.256 96.724 47.726 93.478 44.642z" fill="#000000" data-fill-palette-color="accent"></path></g></svg></g><g transform="matrix(1,0,0,1,305.0820325881012,12.255468749999995)"><svg width="164.35546875" viewBox="0.24000000953674316 -37.0099983215332 164.34999084472656 37.0099983215332" height="37.01171875" data-palette-color="#000000"><path d="M25.39 0L25.39-4.2 28.47-4.2 25.54-12.6 11.3-12.6 8.45-4.2 12.26-4.2 12.26 0 0.24 0 0.24-4.2 3.47-4.2 14.99-37.01 22.19-37.01 33.69-4.2 37.4-4.2 37.4 0 25.39 0ZM18.36-33.2L12.7-16.65 24.12-16.65 18.36-33.2ZM85.45-32.79L85.45-37.01 97.46-37.01 97.46-32.79 94.24-32.79 83.66 0 76.19 0 66.16-32.25 56.91 0 49.51 0 38.72-32.79 35.45-32.79 35.45-37.01 47.46-37.01 47.46-32.79 44.24-32.79 53.2-4.35 62.64-37.01 69.94-37.01 80-4.35 89.13-32.79 85.45-32.79ZM123.09 0L123.09-4.2 126.17-4.2 123.24-12.6 109-12.6 106.15-4.2 109.96-4.2 109.96 0 97.94 0 97.94-4.2 101.17-4.2 112.69-37.01 119.89-37.01 131.39-4.2 135.1-4.2 135.1 0 123.09 0ZM116.06-33.2L110.4-16.65 121.82-16.65 116.06-33.2ZM133.54-32.79L133.54-37.01 145.55-37.01 145.55-32.79 142.03-32.79 148.99-20.9 156.44-32.79 152.58-32.79 152.58-37.01 164.59-37.01 164.59-32.79 161.44-32.79 151.04-17.02 151.04-4.2 154.85-4.2 154.85 0 142.84 0 142.84-4.2 146.23-4.2 146.23-17.14 136.42-32.79 133.54-32.79Z" opacity="1" transform="matrix(1,0,0,1,0,0)" fill="#000000" class="undefined-o-1"></path></svg></g></svg></g></svg></g></svg></g></svg></g></svg></g><defs></defs></svg><rect width="395.52" height="52.452410448277696" fill="none" stroke="none" visibility="hidden"></rect></g></svg></g></svg>